<?xml version="1.0" standalone="no"?>
<!DOCTYPE svg PUBLIC "-//W3C//DTD SVG 20010904//EN"
 "http://www.w3.org/TR/2001/REC-SVG-20010904/DTD/svg10.dtd">
<svg version="1.0" xmlns="http://www.w3.org/2000/svg"
 width="218.000000pt" height="218.000000pt" viewBox="0 0 218.000000 218.000000"
 preserveAspectRatio="xMidYMid meet">

<g transform="translate(0.000000,218.000000) scale(0.100000,-0.100000)"
fill="none" stroke="none">
<path d="M1025 2029 c-22 -15 -46 -28 -52 -29 -10 0 -13 -55 -13 -240 l0 -240
-50 0 -50 0 0 216 c0 202 -1 216 -17 209 -10 -4 -58 -20 -108 -34 l-90 -27 -3
-182 -2 -182 -45 0 -45 0 0 171 0 171 -27 -5 c-16 -4 -65 -12 -110 -19 l-83
-12 0 -153 0 -153 -99 0 -99 0 -37 -54 -37 -54 38 -56 39 -56 101 0 101 0 12
-107 c6 -60 14 -122 17 -140 6 -29 4 -32 -17 -31 -99 4 -107 1 -145 -56 l-36
-54 41 -56 42 -56 89 0 90 0 28 -63 c16 -34 43 -84 60 -111 l32 -50 0 112 0
112 45 0 45 0 0 -164 0 -163 78 -76 c42 -41 92 -87 109 -102 l33 -27 2 269 3
268 45 -1 45 -1 5 -306 5 -305 47 -36 c26 -20 50 -36 55 -36 4 0 31 16 58 36
l50 35 5 307 5 307 40 -1 40 -1 3 -266 c1 -147 6 -267 10 -267 4 0 54 43 110
96 l102 96 0 168 0 168 46 4 c25 2 47 1 50 -1 2 -2 4 -52 4 -110 1 -123 2
-123 71 19 l44 89 75 2 c41 1 83 2 93 2 11 0 33 22 56 56 l39 57 -38 53 -39
54 -60 -1 c-39 0 -61 4 -61 12 0 18 21 219 26 244 4 21 9 22 104 22 l99 0 40
56 40 56 -37 54 -37 53 -97 1 -97 0 -3 152 -3 152 -95 17 c-52 10 -101 18
-107 18 -10 1 -13 -39 -13 -169 l0 -170 -50 0 -50 0 0 183 0 182 -94 27 c-52
16 -101 31 -110 34 -14 5 -16 -17 -16 -210 l0 -216 -45 0 -45 0 0 234 0 233
-52 34 c-29 18 -55 35 -58 35 -3 1 -23 -11 -45 -27z m-387 -866 l-3 -138 -42
-3 -43 -3 0 140 0 141 45 0 46 0 -3 -137z m317 -3 l0 -135 -45 0 -45 0 -3 138
-3 138 48 -3 48 -3 0 -135z m315 0 l0 -141 -42 3 -43 3 -3 138 -3 137 46 0 45
0 0 -140z m318 3 l-3 -138 -45 0 -45 0 -3 124 c-1 69 0 131 2 138 3 8 23 13
51 13 l46 0 -3 -137z" stroke="#35663d" stroke-width="20" />
</g>
</svg>
